<svg xmlns="http://www.w3.org/2000/svg" viewBox="0 0 300 60" fill="none">
  <!-- Иконка грузовика -->
  <g transform="translate(10,14) scale(1.5)">
    <path d="M14 18V6a2 2 0 0 0-2-2H4a2 2 0 0 0-2 2v11a1 1 0 0 0 1 1h2" stroke="#D71416" stroke-width="2" stroke-linecap="round" stroke-linejoin="round" fill="none"/>
    <path d="M15 18H9" stroke="#D71416" stroke-width="2" stroke-linecap="round" stroke-linejoin="round" fill="none"/>
    <path d="M19 18h2a1 1 0 0 0 1-1v-3.65a1 1 0 0 0-.22-.624l-3.48-4.35A1 1 0 0 0 17.52 8H14" stroke="#D71416" stroke-width="2" stroke-linecap="round" stroke-linejoin="round" fill="none"/>
    <circle cx="17" cy="18" r="2" stroke="#D71416" stroke-width="2" stroke-linecap="round" stroke-linejoin="round" fill="none"/>
    <circle cx="7" cy="18" r="2" stroke="#D71416" stroke-width="2" stroke-linecap="round" stroke-linejoin="round" fill="none"/>
  </g>
  
  <!-- Текст "Truck" -->
  <text x="55" y="35" font-family="Arial, sans-serif" font-size="28" font-weight="bold" fill="#D71416">Truck</text>
  
  <!-- Текст "-Price.ru" -->
  <text x="138" y="35" font-family="Arial, sans-serif" font-size="28" font-weight="bold" fill="white">-Price.ru</text>
</svg> 