<svg xmlns="http://www.w3.org/2000/svg" viewBox="0 0 200 60" fill="none">
  <!-- Truck Shape -->
  <path d="M35 15H15C13.8954 15 13 15.8954 13 17V40H50V30L45 15H35Z" fill="#FF0000" stroke="#FF0000" stroke-width="2"/>
  <rect x="13" y="35" width="12" height="10" rx="2" fill="black" stroke="#FF0000" stroke-width="2"/>
  <rect x="35" y="35" width="12" height="10" rx="2" fill="black" stroke="#FF0000" stroke-width="2"/>
  <rect x="43" y="20" width="8" height="10" fill="#FF0000"/>
  <rect x="20" y="20" width="15" height="7" rx="2" fill="black" stroke="#FF0000" stroke-width="1"/>
  
  <!-- Text "Truck" -->
  <path d="M65 25H60V40H65V35H70V40H75V25H70V30H65V25Z" fill="#FF0000"/>
  <path d="M80 25H75V40H90V35H80V25Z" fill="#FF0000"/>
  <path d="M95 25H90V40H95V35H100V30H95V25Z" fill="#FF0000"/>
  <path d="M105 25V40H110V35L115 40H120V25H115V30L110 25H105Z" fill="#FF0000"/>
  
  <!-- Text "-Price" -->
  <path d="M125 30H130V35H125V30Z" fill="white"/>
  <path d="M135 25H130V40H135V35H140V40H145V25H140V30H135V25Z" fill="white"/>
  <path d="M150 25H145V40H150V35H155V30H150V25Z" fill="white"/>
  <path d="M160 25V40H165V25H160Z" fill="white"/>
  <path d="M180 30H175V25H165V40H170V30H175V40H180V30Z" fill="white"/>
  <path d="M185 25H180V40H195V35H185V25Z" fill="white"/>
</svg> 